<svg xmlns="http://www.w3.org/2000/svg" width="248.038" height="261.427" viewBox="0 0 248.038 261.427">
  <path id="Union_3" data-name="Union 3" d="M175.793,259.078a8.876,8.876,0,0,1-2.342-6.554,9.368,9.368,0,0,1,2.529-6.9,8.428,8.428,0,0,1,6.221-2.546,7.651,7.651,0,0,1,5.922,2.273,8.753,8.753,0,0,1,2.093,6.169v2.273H178.8q.273,3.811,4.8,3.811a9.373,9.373,0,0,0,5.076-1.367v3.9a13.336,13.336,0,0,1-6.306,1.3A8.878,8.878,0,0,1,175.793,259.078Zm4.126-11.288a4.882,4.882,0,0,0-1.153,2.683h6.442q0-3.76-3.042-3.76A2.9,2.9,0,0,0,179.92,247.79Zm-59.5,7.708v-8.015h-2.837V243.5h2.837v-3.777l5.384-1.538V243.5h3.93v3.982h-3.93v7.075q0,2.735,2.17,2.734a3.66,3.66,0,0,0,1.76-.495v4a7.975,7.975,0,0,1-3.606.633Q120.422,261.428,120.422,255.5Zm-22.712-1.436V243.5h5.384v10.083q0,3.708,2.939,3.708a2.907,2.907,0,0,0,2.324-1.016,4.1,4.1,0,0,0,.871-2.76V243.5h5.384V261h-5.384v-2.666h-.085a6.11,6.11,0,0,1-5.35,3.093Q97.709,261.428,97.709,254.062Zm-19.661,4.913a10.141,10.141,0,0,1,.094-13.45,9.814,9.814,0,0,1,7.024-2.452A9.294,9.294,0,0,1,92,245.525a8.717,8.717,0,0,1,2.478,6.485,9.25,9.25,0,0,1-2.555,6.887,9.508,9.508,0,0,1-7,2.53A9.409,9.409,0,0,1,78.048,258.975Zm4.041-10.451a5.809,5.809,0,0,0-1.059,3.726q0,5.041,4.067,5.041,3.88,0,3.88-5.178,0-4.9-3.914-4.9A3.6,3.6,0,0,0,82.089,248.524ZM60.351,258.966h-.068V261h-5.4V235.092h5.4v11.04h.068a6.408,6.408,0,0,1,5.691-3.059,6.248,6.248,0,0,1,5.213,2.324,10.028,10.028,0,0,1,1.828,6.358,10.854,10.854,0,0,1-2.136,7.024,6.958,6.958,0,0,1-5.708,2.65A5.514,5.514,0,0,1,60.351,258.966Zm.914-10.544a4.606,4.606,0,0,0-1.068,3.162v1.795a4.1,4.1,0,0,0,.974,2.8,3.17,3.17,0,0,0,2.5,1.111,3.31,3.31,0,0,0,2.862-1.426,6.892,6.892,0,0,0,1.017-4.042,5.48,5.48,0,0,0-.931-3.392,3.143,3.143,0,0,0-2.658-1.222A3.434,3.434,0,0,0,61.266,248.422ZM164.839,261v-9.98q0-3.811-2.8-3.812a2.575,2.575,0,0,0-2.171,1.145,4.71,4.71,0,0,0-.837,2.854V261h-5.4V250.917q0-3.708-2.751-3.709a2.638,2.638,0,0,0-2.213,1.094,4.815,4.815,0,0,0-.829,2.974V261h-5.4V243.5h5.4v2.734h.068a6.632,6.632,0,0,1,5.656-3.162,5.04,5.04,0,0,1,5.076,3.264,6.473,6.473,0,0,1,5.879-3.264q5.708,0,5.708,7.041V261Zm-118.5,0-1.743-5.451H35.879L34.152,261H28.171l8.921-24.507h6.546L52.353,261Zm-6.614-18-2.666,8.305H43.33L40.7,243.073a10.772,10.772,0,0,1-.41-2.205h-.137A9.294,9.294,0,0,1,39.723,243ZM0,104.667C0,46.865,55.529,0,124.019,0S248.038,46.865,248.038,104.667s-55.53,104.666-124.019,104.666S0,162.47,0,104.667Zm20.669,0c0,48.094,46.363,87.223,103.35,87.223s103.349-39.128,103.349-87.223S181.005,17.445,124.019,17.445,20.669,56.572,20.669,104.667Zm41.34,17.444H186.028c-3.442,12.9-29.609,34.889-62,34.889C91.226,157,65.43,134.889,62.009,122.111Zm82.679-39.25c0-7.231,6.945-13.083,15.5-13.083s15.5,5.853,15.5,13.083-6.945,13.083-15.5,13.083S144.689,90.092,144.689,82.861Zm-72.344,0c0-7.231,6.944-13.083,15.5-13.083s15.5,5.853,15.5,13.083S96.4,95.945,87.846,95.945,72.345,90.092,72.345,82.861Z"/>
</svg>
