<svg xmlns="http://www.w3.org/2000/svg" width="240.935" height="183.103" viewBox="0 0 240.935 183.103">
  <path id="Union_1" data-name="Union 1" d="M10.059,183.1C4.2,183.1,0,178.709,0,173.93c0-3.808,18.1-42.351,20.078-45.757H220.857c1.977,3.406,20.078,41.949,20.078,45.757,0,4.779-4.2,9.174-10.059,9.174Zm88.032-9.155h44.743l-4.688-9.156H102.779ZM20.078,119.017V10.986C20.078,4.917,25.469,0,32.125,0H208.811c6.656,0,12.046,4.917,12.046,10.986V119.017Zm20.078-18.31H200.779v-82.4H40.156Zm36.211-20.93V75.47a4.544,4.544,0,0,0,2.341.632,2.926,2.926,0,0,0,2.906-1.965l.923-2.171L75.428,54.5H81.41l3.263,10.647a13.762,13.762,0,0,1,.479,2.341h.068a16.3,16.3,0,0,1,.564-2.307l3.3-10.681h5.349L87.323,73.4Q84.759,80.22,79.6,80.221A9.9,9.9,0,0,1,76.368,79.776Zm91.055-9.7a8.88,8.88,0,0,1-2.342-6.554,9.365,9.365,0,0,1,2.53-6.9,8.425,8.425,0,0,1,6.221-2.546,7.65,7.65,0,0,1,5.921,2.272,8.753,8.753,0,0,1,2.093,6.169v2.273H170.43q.273,3.811,4.8,3.811a9.371,9.371,0,0,0,5.075-1.367v3.9a13.333,13.333,0,0,1-6.306,1.3A8.878,8.878,0,0,1,167.423,70.078ZM171.55,58.79a4.882,4.882,0,0,0-1.154,2.683h6.443q0-3.76-3.042-3.76A2.9,2.9,0,0,0,171.55,58.79ZM145.41,70.112a9.587,9.587,0,0,1-2-6.468,10.434,10.434,0,0,1,2.2-6.956,7.191,7.191,0,0,1,5.776-2.614q3.384,0,4.717,2.426h.068V46.092h5.4V72h-5.4V69.591h-.068a6.055,6.055,0,0,1-5.417,2.837A6.636,6.636,0,0,1,145.41,70.112ZM149.9,59.619A6.552,6.552,0,0,0,148.9,63.49a5.667,5.667,0,0,0,.974,3.554,3.459,3.459,0,0,0,5.375-.068,5.482,5.482,0,0,0,1.034-3.486V62.173a4.144,4.144,0,0,0-.991-2.837,3.5,3.5,0,0,0-5.384.283ZM124.519,69.975a8.89,8.89,0,0,1-2.5-6.656,8.89,8.89,0,0,1,2.6-6.793,9.814,9.814,0,0,1,7.024-2.452,9.293,9.293,0,0,1,6.836,2.452,8.714,8.714,0,0,1,2.478,6.485A9.253,9.253,0,0,1,138.4,69.9a9.512,9.512,0,0,1-7,2.53A9.409,9.409,0,0,1,124.519,69.975Zm4.042-10.451a5.8,5.8,0,0,0-1.06,3.726q0,5.041,4.068,5.041,3.879,0,3.879-5.178,0-4.9-3.913-4.905A3.6,3.6,0,0,0,128.561,59.524ZM107.71,69.983a8.441,8.441,0,0,1-2.495-6.306,9.293,9.293,0,0,1,2.675-7.032,9.88,9.88,0,0,1,7.151-2.572,9.182,9.182,0,0,1,4.478.82v4.58a6.154,6.154,0,0,0-3.776-1.264,4.973,4.973,0,0,0-3.683,1.359,5.069,5.069,0,0,0-1.359,3.751,4.988,4.988,0,0,0,1.3,3.649,4.775,4.775,0,0,0,3.572,1.324,7.123,7.123,0,0,0,3.947-1.264v4.341a10.673,10.673,0,0,1-5.28,1.06A8.93,8.93,0,0,1,107.71,69.983ZM67.276,72V57.337q0-2.376.205-5.247h-.137a25.745,25.745,0,0,1-.77,3.247L60.833,72H56.321L50.477,55.508a32.121,32.121,0,0,1-.769-3.418h-.154q.221,3.623.222,6.358V72H44.8V47.493h8.083L57.893,62.02a20.485,20.485,0,0,1,.872,3.5h.1a35.053,35.053,0,0,1,.974-3.537L64.85,47.493h7.878V72Z"/>
</svg>
