<svg xmlns="http://www.w3.org/2000/svg" width="245.261" height="262.427" viewBox="0 0 245.261 262.427">
  <path id="Union_2" data-name="Union 2" d="M158.117,260.078a8.879,8.879,0,0,1-2.341-6.554,9.368,9.368,0,0,1,2.529-6.9,8.428,8.428,0,0,1,6.221-2.546,7.651,7.651,0,0,1,5.922,2.273,8.757,8.757,0,0,1,2.093,6.169v2.273H161.125q.274,3.811,4.8,3.811A9.375,9.375,0,0,0,171,257.232v3.9a13.336,13.336,0,0,1-6.306,1.3A8.88,8.88,0,0,1,158.117,260.078Zm4.127-11.288a4.883,4.883,0,0,0-1.154,2.683h6.443q0-3.76-3.042-3.759A2.9,2.9,0,0,0,162.245,248.79Zm-58.935,6.272V244.5h5.384v10.083q0,3.708,2.939,3.709a2.907,2.907,0,0,0,2.324-1.017,4.1,4.1,0,0,0,.872-2.76V244.5h5.383V262h-5.383v-2.666h-.085a6.108,6.108,0,0,1-5.35,3.093Q103.311,262.427,103.31,255.062Zm-16.269,6.476v-4.375a11.547,11.547,0,0,0,2.658,1.2,8.813,8.813,0,0,0,2.5.392,5.375,5.375,0,0,0,2.264-.392,1.272,1.272,0,0,0,.829-1.2,1.105,1.105,0,0,0-.376-.854,3.493,3.493,0,0,0-.966-.6,10.8,10.8,0,0,0-1.29-.461q-.7-.205-1.351-.462a12.987,12.987,0,0,1-1.837-.846,5.321,5.321,0,0,1-1.333-1.051,4.115,4.115,0,0,1-.82-1.384,5.519,5.519,0,0,1-.283-1.863,4.8,4.8,0,0,1,.641-2.529,5.237,5.237,0,0,1,1.709-1.734,7.808,7.808,0,0,1,2.444-.992,12.749,12.749,0,0,1,2.862-.316,15.885,15.885,0,0,1,2.359.179,17.643,17.643,0,0,1,2.358.521v4.171a8.5,8.5,0,0,0-2.2-.9,9.24,9.24,0,0,0-2.3-.3,5.071,5.071,0,0,0-1,.094,3.307,3.307,0,0,0-.829.274,1.527,1.527,0,0,0-.563.461,1.064,1.064,0,0,0-.205.642,1.183,1.183,0,0,0,.308.82,2.655,2.655,0,0,0,.8.589,7.9,7.9,0,0,0,1.1.445q.606.2,1.2.4a15.555,15.555,0,0,1,1.949.821,6.222,6.222,0,0,1,1.5,1.042,4.094,4.094,0,0,1,.957,1.4,5.608,5.608,0,0,1-.342,4.571A5.389,5.389,0,0,1,98,261.1a8.141,8.141,0,0,1-2.58,1.009,14.315,14.315,0,0,1-3.033.316A15.623,15.623,0,0,1,87.041,261.538Zm-16.492-1.461a8.879,8.879,0,0,1-2.341-6.554,9.364,9.364,0,0,1,2.529-6.9,8.428,8.428,0,0,1,6.221-2.546,7.647,7.647,0,0,1,5.921,2.273,8.754,8.754,0,0,1,2.094,6.169v2.273H73.557q.274,3.811,4.8,3.811a9.377,9.377,0,0,0,5.076-1.367v3.9a13.338,13.338,0,0,1-6.306,1.3A8.879,8.879,0,0,1,70.549,260.078Zm4.127-11.288a4.882,4.882,0,0,0-1.154,2.683h6.443q0-3.76-3.042-3.759A2.9,2.9,0,0,0,74.677,248.79ZM147.163,262v-9.98q0-3.811-2.8-3.811a2.574,2.574,0,0,0-2.17,1.145,4.711,4.711,0,0,0-.838,2.855V262h-5.4V251.917q0-3.708-2.751-3.709a2.637,2.637,0,0,0-2.213,1.093,4.816,4.816,0,0,0-.829,2.975V262h-5.4V244.5h5.4v2.734h.068a6.632,6.632,0,0,1,5.656-3.162,5.04,5.04,0,0,1,5.076,3.264,6.473,6.473,0,0,1,5.879-3.264q5.708,0,5.708,7.041V262Zm-85.142,0-3.812-6.306q-.427-.717-.82-1.282a7.16,7.16,0,0,0-.795-.966,3.169,3.169,0,0,0-.838-.615,2.113,2.113,0,0,0-.948-.214H53.323V262H47.8V237.493h8.75q8.921,0,8.921,6.665a6.908,6.908,0,0,1-.392,2.367,6.569,6.569,0,0,1-1.111,1.957,7.018,7.018,0,0,1-1.734,1.5,8.929,8.929,0,0,1-2.264.991v.068a3.529,3.529,0,0,1,1.059.555,7.671,7.671,0,0,1,.992.9,12.62,12.62,0,0,1,.914,1.1q.435.59.795,1.154L68.362,262Zm-8.7-13.552h2.392a3.968,3.968,0,0,0,2.854-1.025,3.423,3.423,0,0,0,1.093-2.581q0-3.212-3.845-3.212H53.323ZM0,204.552V92.978H40.877V0H146.421c15.717,0,57.964,45.112,57.964,56.075v36.9h40.876V204.552Zm61.315-65.085h122.63V61.4c0-12.441-23.31-13.891-33.212-11.426,4.629-7.559,3.117-31.38-11.057-31.38H61.315Zm20.438-27.893v-9.3h81.754v9.3Zm0-18.6v-9.3h81.754v9.3Zm0-18.6v-9.3h81.754v9.3Z"/>
</svg>
